<svg width="30" height="35" viewBox="0 0 30 35" fill="none" xmlns="http://www.w3.org/2000/svg">
<path d="M14.4093 3.17221H15.4688C19.5648 3.17221 22.8853 6.48611 22.8853 10.574H26.0638C26.0638 4.73415 21.3203 0 15.4688 0H14.4093C8.55779 0 3.81422 4.73415 3.81422 10.574V15.7553H1.05951C0.474357 15.7553 0 16.2287 0 16.8127V33.9426C0 34.5266 0.474357 35 1.05951 35H28.8185C29.4037 35 29.878 34.5266 29.878 33.9426V16.8127C29.878 16.2287 29.4037 15.7553 28.8185 15.7553H26.0638H22.8853H6.99273V10.574C6.99273 6.48611 10.3132 3.17221 14.4093 3.17221Z" fill="black"/>
</svg>
