<svg width="215" height="215" viewBox="0 0 215 215" fill="none" xmlns="http://www.w3.org/2000/svg">
<path d="M51.4645 51.4645C53.4171 49.5118 56.5829 49.5118 58.5355 51.4645L107 99.9289L155.464 51.4645C157.417 49.5118 160.583 49.5118 162.536 51.4645C164.488 53.4171 164.488 56.5829 162.536 58.5355L114.071 107L162.536 155.464C164.488 157.417 164.488 160.583 162.536 162.536C160.583 164.488 157.417 164.488 155.464 162.536L107 114.071L58.5355 162.536C56.5829 164.488 53.4171 164.488 51.4645 162.536C49.5118 160.583 49.5118 157.417 51.4645 155.464L99.9289 107L51.4645 58.5355C49.5118 56.5829 49.5118 53.4171 51.4645 51.4645Z" fill="black"/>
<path fill-rule="evenodd" clip-rule="evenodd" d="M107.5 215C166.871 215 215 166.871 215 107.5C215 48.1294 166.871 0 107.5 0C48.1294 0 0 48.1294 0 107.5C0 166.871 48.1294 215 107.5 215ZM107.5 205C161.348 205 205 161.348 205 107.5C205 53.6522 161.348 10 107.5 10C53.6522 10 10 53.6522 10 107.5C10 161.348 53.6522 205 107.5 205Z" fill="black"/>
</svg>
