<svg width="162" height="215" viewBox="0 0 162 215" fill="none" xmlns="http://www.w3.org/2000/svg">
<path fill-rule="evenodd" clip-rule="evenodd" d="M9.68469 4.84234C9.68469 2.16799 7.5167 0 4.84235 0C2.168 0 7.63358e-06 2.16799 7.63358e-06 4.84234L0 210.158C-9.94328e-08 212.832 2.16799 215 4.84234 215C7.51669 215 9.68468 212.832 9.68468 210.158L9.68469 128.806H152.108C160.404 128.806 164.86 119.057 159.432 112.784L125.525 73.6036L159.432 34.423C164.86 28.1501 160.404 18.4009 152.108 18.4009H9.68469L9.68469 4.84234ZM9.68469 28.0856L9.68469 119.122H152.108L118.202 79.941C115.054 76.3027 115.054 70.9045 118.202 67.2662L152.108 28.0856H9.68469Z" fill="black"/>
</svg>
